<svg width="520" height="982" viewBox="0 0 520 982" fill="none" xmlns="http://www.w3.org/2000/svg">
<g filter="url(#filter0_d)">
<path d="M482 272H487C487.552 272 488 272.448 488 273V333C488 333.552 487.552 334 487 334H482V272Z" fill="#4E4E4E"/>
<path d="M482 398H487C487.552 398 488 398.448 488 399V534C488 534.552 487.552 535 487 535H482V398Z" fill="#4E4E4E"/>
<rect x="34" y="34" width="448" height="914" rx="53" fill="#222222" stroke="#434343" stroke-width="4"/>
<rect x="40" y="39" width="436" height="904" rx="49" fill="#1F1F1F" stroke="#1B1B1B" stroke-width="2"/>
<circle cx="116" cy="70" r="8" fill="#2B2B2B"/>
<circle cx="116" cy="70" r="5" fill="#272727"/>
<circle cx="118" cy="72" r="2" fill="#2B2B2B"/>
<rect x="175" y="63" width="166" height="14" rx="7" fill="#282828"/>
<rect x="175" y="904" width="166" height="14" rx="7" fill="#282828"/>
</g>
<g filter="url(#filter1_i)">
<g clip-path="url(#clip0)">
<rect x="52" y="120" width="412" height="732" fill="#18191A"/>
<rect x="52" y="211" width="412" height="221" fill="#6D5C93"/>
<rect x="52" y="433" width="412" height="419" fill="#161618"/>
<rect x="73" y="284" width="370" height="185" rx="4" fill="#242529"/>
<path d="M116.859 324.07H112.359V327.117H117.641V329H110.016V317.625H117.625V319.523H112.359V322.234H116.859V324.07ZM120.945 320.547L121.016 321.523C121.62 320.768 122.43 320.391 123.445 320.391C124.341 320.391 125.008 320.654 125.445 321.18C125.883 321.706 126.107 322.492 126.117 323.539V329H123.859V323.594C123.859 323.115 123.755 322.768 123.547 322.555C123.339 322.336 122.992 322.227 122.508 322.227C121.872 322.227 121.396 322.497 121.078 323.039V329H118.82V320.547H120.945ZM130.539 318.469V320.547H131.984V322.203H130.539V326.422C130.539 326.734 130.599 326.958 130.719 327.094C130.839 327.229 131.068 327.297 131.406 327.297C131.656 327.297 131.878 327.279 132.07 327.242V328.953C131.628 329.089 131.172 329.156 130.703 329.156C129.12 329.156 128.312 328.357 128.281 326.758V322.203H127.047V320.547H128.281V318.469H130.539ZM137.992 322.664C137.685 322.622 137.414 322.602 137.18 322.602C136.326 322.602 135.766 322.891 135.5 323.469V329H133.242V320.547H135.375L135.438 321.555C135.891 320.779 136.518 320.391 137.32 320.391C137.57 320.391 137.805 320.424 138.023 320.492L137.992 322.664ZM143.75 329C143.646 328.797 143.57 328.544 143.523 328.242C142.977 328.852 142.266 329.156 141.391 329.156C140.562 329.156 139.875 328.917 139.328 328.438C138.786 327.958 138.516 327.354 138.516 326.625C138.516 325.729 138.846 325.042 139.508 324.562C140.174 324.083 141.135 323.841 142.391 323.836H143.43V323.352C143.43 322.961 143.328 322.648 143.125 322.414C142.927 322.18 142.612 322.062 142.18 322.062C141.799 322.062 141.5 322.154 141.281 322.336C141.068 322.518 140.961 322.768 140.961 323.086H138.703C138.703 322.596 138.854 322.143 139.156 321.727C139.458 321.31 139.885 320.984 140.438 320.75C140.99 320.51 141.609 320.391 142.297 320.391C143.339 320.391 144.164 320.654 144.773 321.18C145.388 321.701 145.695 322.435 145.695 323.383V327.047C145.701 327.849 145.812 328.456 146.031 328.867V329H143.75ZM141.883 327.43C142.216 327.43 142.523 327.357 142.805 327.211C143.086 327.06 143.294 326.859 143.43 326.609V325.156H142.586C141.456 325.156 140.854 325.547 140.781 326.328L140.773 326.461C140.773 326.742 140.872 326.974 141.07 327.156C141.268 327.339 141.539 327.43 141.883 327.43ZM147.078 324.711C147.078 323.393 147.372 322.344 147.961 321.562C148.555 320.781 149.365 320.391 150.391 320.391C151.214 320.391 151.893 320.698 152.43 321.312V317H154.695V329H152.656L152.547 328.102C151.984 328.805 151.26 329.156 150.375 329.156C149.38 329.156 148.581 328.766 147.977 327.984C147.378 327.198 147.078 326.107 147.078 324.711ZM149.336 324.875C149.336 325.667 149.474 326.273 149.75 326.695C150.026 327.117 150.427 327.328 150.953 327.328C151.651 327.328 152.143 327.034 152.43 326.445V323.109C152.148 322.521 151.661 322.227 150.969 322.227C149.88 322.227 149.336 323.109 149.336 324.875ZM161.344 329C161.24 328.797 161.164 328.544 161.117 328.242C160.57 328.852 159.859 329.156 158.984 329.156C158.156 329.156 157.469 328.917 156.922 328.438C156.38 327.958 156.109 327.354 156.109 326.625C156.109 325.729 156.44 325.042 157.102 324.562C157.768 324.083 158.729 323.841 159.984 323.836H161.023V323.352C161.023 322.961 160.922 322.648 160.719 322.414C160.521 322.18 160.206 322.062 159.773 322.062C159.393 322.062 159.094 322.154 158.875 322.336C158.661 322.518 158.555 322.768 158.555 323.086H156.297C156.297 322.596 156.448 322.143 156.75 321.727C157.052 321.31 157.479 320.984 158.031 320.75C158.583 320.51 159.203 320.391 159.891 320.391C160.932 320.391 161.758 320.654 162.367 321.18C162.982 321.701 163.289 322.435 163.289 323.383V327.047C163.294 327.849 163.406 328.456 163.625 328.867V329H161.344ZM159.477 327.43C159.81 327.43 160.117 327.357 160.398 327.211C160.68 327.06 160.888 326.859 161.023 326.609V325.156H160.18C159.049 325.156 158.448 325.547 158.375 326.328L158.367 326.461C158.367 326.742 158.466 326.974 158.664 327.156C158.862 327.339 159.133 327.43 159.477 327.43ZM169.602 326.664C169.602 326.388 169.464 326.172 169.188 326.016C168.917 325.854 168.479 325.711 167.875 325.586C165.865 325.164 164.859 324.31 164.859 323.023C164.859 322.273 165.169 321.648 165.789 321.148C166.414 320.643 167.229 320.391 168.234 320.391C169.307 320.391 170.164 320.643 170.805 321.148C171.451 321.654 171.773 322.31 171.773 323.117H169.516C169.516 322.794 169.411 322.529 169.203 322.32C168.995 322.107 168.669 322 168.227 322C167.846 322 167.552 322.086 167.344 322.258C167.135 322.43 167.031 322.648 167.031 322.914C167.031 323.164 167.148 323.367 167.383 323.523C167.622 323.674 168.023 323.807 168.586 323.922C169.148 324.031 169.622 324.156 170.008 324.297C171.201 324.734 171.797 325.492 171.797 326.57C171.797 327.341 171.466 327.966 170.805 328.445C170.143 328.919 169.289 329.156 168.242 329.156C167.534 329.156 166.904 329.031 166.352 328.781C165.805 328.526 165.375 328.18 165.062 327.742C164.75 327.299 164.594 326.823 164.594 326.312H166.734C166.755 326.714 166.904 327.021 167.18 327.234C167.456 327.448 167.826 327.555 168.289 327.555C168.721 327.555 169.047 327.474 169.266 327.312C169.49 327.146 169.602 326.93 169.602 326.664Z" fill="white"/>
<path d="M120.76 414.631H116.559V424H111.285V398.406H120.795C123.818 398.406 126.15 399.08 127.791 400.428C129.432 401.775 130.252 403.68 130.252 406.141C130.252 407.887 129.871 409.346 129.109 410.518C128.359 411.678 127.217 412.604 125.682 413.295L131.219 423.754V424H125.559L120.76 414.631ZM116.559 410.359H120.812C122.137 410.359 123.162 410.025 123.889 409.357C124.615 408.678 124.979 407.746 124.979 406.562C124.979 405.355 124.633 404.406 123.941 403.715C123.262 403.023 122.213 402.678 120.795 402.678H116.559V410.359ZM145.879 417.268C145.879 416.307 145.609 415.545 145.07 414.982C144.543 414.408 143.641 413.881 142.363 413.4C141.086 412.92 139.984 412.445 139.059 411.977C138.133 411.496 137.336 410.951 136.668 410.342C136.012 409.721 135.496 408.994 135.121 408.162C134.758 407.33 134.576 406.34 134.576 405.191C134.576 403.211 135.209 401.588 136.475 400.322C137.74 399.057 139.422 398.318 141.52 398.107V394.346H144.332V398.16C146.406 398.453 148.029 399.32 149.201 400.762C150.373 402.191 150.959 404.049 150.959 406.334H145.879C145.879 404.928 145.586 403.879 145 403.188C144.426 402.484 143.652 402.133 142.68 402.133C141.719 402.133 140.975 402.408 140.447 402.959C139.92 403.498 139.656 404.248 139.656 405.209C139.656 406.1 139.914 406.814 140.43 407.354C140.945 407.893 141.9 408.443 143.295 409.006C144.701 409.568 145.855 410.102 146.758 410.605C147.66 411.098 148.422 411.66 149.043 412.293C149.664 412.914 150.139 413.629 150.467 414.438C150.795 415.234 150.959 416.166 150.959 417.232C150.959 419.225 150.338 420.842 149.096 422.084C147.854 423.326 146.143 424.059 143.963 424.281V427.779H141.168V424.299C138.766 424.041 136.902 423.191 135.578 421.75C134.266 420.297 133.609 418.369 133.609 415.967H138.689C138.689 417.361 139.018 418.434 139.674 419.184C140.342 419.922 141.297 420.291 142.539 420.291C143.57 420.291 144.385 420.021 144.982 419.482C145.58 418.932 145.879 418.193 145.879 417.268ZM175.709 424H170.629V404.418L164.564 406.299V402.168L175.164 398.371H175.709V424ZM184.516 421.504C184.516 420.695 184.785 420.039 185.324 419.535C185.875 419.031 186.561 418.779 187.381 418.779C188.213 418.779 188.898 419.031 189.438 419.535C189.988 420.039 190.264 420.695 190.264 421.504C190.264 422.301 189.994 422.951 189.455 423.455C188.916 423.947 188.225 424.193 187.381 424.193C186.549 424.193 185.863 423.947 185.324 423.455C184.785 422.951 184.516 422.301 184.516 421.504ZM211.744 413.418C211.744 416.957 211.012 419.664 209.547 421.539C208.082 423.414 205.938 424.352 203.113 424.352C200.324 424.352 198.191 423.432 196.715 421.592C195.238 419.752 194.482 417.115 194.447 413.682V408.971C194.447 405.396 195.186 402.684 196.662 400.832C198.15 398.98 200.289 398.055 203.078 398.055C205.867 398.055 208 398.975 209.477 400.814C210.953 402.643 211.709 405.273 211.744 408.707V413.418ZM206.664 408.25C206.664 406.129 206.371 404.588 205.785 403.627C205.211 402.654 204.309 402.168 203.078 402.168C201.883 402.168 200.998 402.631 200.424 403.557C199.861 404.471 199.562 405.906 199.527 407.863V414.086C199.527 416.172 199.809 417.725 200.371 418.744C200.945 419.752 201.859 420.256 203.113 420.256C204.355 420.256 205.252 419.77 205.803 418.797C206.354 417.824 206.641 416.336 206.664 414.332V408.25ZM215.945 411.414L217.422 398.406H231.766V402.643H221.588L220.955 408.145C222.162 407.5 223.445 407.178 224.805 407.178C227.242 407.178 229.152 407.934 230.535 409.445C231.918 410.957 232.609 413.072 232.609 415.791C232.609 417.443 232.258 418.926 231.555 420.238C230.863 421.539 229.867 422.553 228.566 423.279C227.266 423.994 225.73 424.352 223.961 424.352C222.414 424.352 220.979 424.041 219.654 423.42C218.33 422.787 217.281 421.902 216.508 420.766C215.746 419.629 215.342 418.334 215.295 416.881H220.322C220.428 417.947 220.797 418.779 221.43 419.377C222.074 419.963 222.912 420.256 223.943 420.256C225.092 420.256 225.977 419.846 226.598 419.025C227.219 418.193 227.529 417.021 227.529 415.51C227.529 414.057 227.172 412.943 226.457 412.17C225.742 411.396 224.729 411.01 223.416 411.01C222.209 411.01 221.23 411.326 220.48 411.959L219.988 412.416L215.945 411.414ZM241.029 408.953H243.736C245.025 408.953 245.98 408.631 246.602 407.986C247.223 407.342 247.533 406.486 247.533 405.42C247.533 404.389 247.223 403.586 246.602 403.012C245.992 402.438 245.148 402.15 244.07 402.15C243.098 402.15 242.283 402.42 241.627 402.959C240.971 403.486 240.643 404.178 240.643 405.033H235.562C235.562 403.697 235.92 402.502 236.635 401.447C237.361 400.381 238.369 399.549 239.658 398.951C240.959 398.354 242.389 398.055 243.947 398.055C246.654 398.055 248.775 398.705 250.311 400.006C251.846 401.295 252.613 403.076 252.613 405.35C252.613 406.521 252.256 407.6 251.541 408.584C250.826 409.568 249.889 410.324 248.729 410.852C250.17 411.367 251.242 412.141 251.945 413.172C252.66 414.203 253.018 415.422 253.018 416.828C253.018 419.102 252.186 420.924 250.521 422.295C248.869 423.666 246.678 424.352 243.947 424.352C241.393 424.352 239.301 423.678 237.672 422.33C236.055 420.982 235.246 419.201 235.246 416.986H240.326C240.326 417.947 240.684 418.732 241.398 419.342C242.125 419.951 243.016 420.256 244.07 420.256C245.277 420.256 246.221 419.939 246.9 419.307C247.592 418.662 247.938 417.812 247.938 416.758C247.938 414.203 246.531 412.926 243.719 412.926H241.029V408.953ZM258.062 430.416L255.408 429.027L256.041 427.885C256.826 426.455 257.23 425.031 257.254 423.613V419.676H261.543L261.525 423.191C261.514 424.492 261.186 425.805 260.541 427.129C259.896 428.453 259.07 429.549 258.062 430.416ZM280.352 414.367H283.252V418.463H280.352V424H275.271V418.463H264.777L264.549 415.264L275.219 398.406H280.352V414.367ZM269.611 414.367H275.271V405.332L274.938 405.912L269.611 414.367ZM286.75 411.414L288.227 398.406H302.57V402.643H292.393L291.76 408.145C292.967 407.5 294.25 407.178 295.609 407.178C298.047 407.178 299.957 407.934 301.34 409.445C302.723 410.957 303.414 413.072 303.414 415.791C303.414 417.443 303.062 418.926 302.359 420.238C301.668 421.539 300.672 422.553 299.371 423.279C298.07 423.994 296.535 424.352 294.766 424.352C293.219 424.352 291.783 424.041 290.459 423.42C289.135 422.787 288.086 421.902 287.312 420.766C286.551 419.629 286.146 418.334 286.1 416.881H291.127C291.232 417.947 291.602 418.779 292.234 419.377C292.879 419.963 293.717 420.256 294.748 420.256C295.896 420.256 296.781 419.846 297.402 419.025C298.023 418.193 298.334 417.021 298.334 415.51C298.334 414.057 297.977 412.943 297.262 412.17C296.547 411.396 295.533 411.01 294.221 411.01C293.014 411.01 292.035 411.326 291.285 411.959L290.793 412.416L286.75 411.414Z" fill="white"/>
<path d="M373.667 338L375.312 339.645L381.833 333.135V347.333H384.167V333.135L390.677 339.657L392.333 338L383 328.667L373.667 338Z" fill="#12A454"/>
<rect x="73" y="486" width="370" height="185" rx="4" fill="#242529"/>
<path d="M115.914 528.016C115.914 527.573 115.758 527.234 115.445 527C115.133 526.76 114.57 526.51 113.758 526.25C112.945 525.984 112.302 525.724 111.828 525.469C110.536 524.771 109.891 523.831 109.891 522.648C109.891 522.034 110.062 521.487 110.406 521.008C110.755 520.523 111.253 520.146 111.898 519.875C112.549 519.604 113.279 519.469 114.086 519.469C114.898 519.469 115.622 519.617 116.258 519.914C116.893 520.206 117.385 520.62 117.734 521.156C118.089 521.693 118.266 522.302 118.266 522.984H115.922C115.922 522.464 115.758 522.06 115.43 521.773C115.102 521.482 114.641 521.336 114.047 521.336C113.474 521.336 113.029 521.458 112.711 521.703C112.393 521.943 112.234 522.26 112.234 522.656C112.234 523.026 112.419 523.336 112.789 523.586C113.164 523.836 113.714 524.07 114.438 524.289C115.771 524.69 116.742 525.188 117.352 525.781C117.961 526.375 118.266 527.115 118.266 528C118.266 528.984 117.893 529.758 117.148 530.32C116.404 530.878 115.401 531.156 114.141 531.156C113.266 531.156 112.469 530.997 111.75 530.68C111.031 530.357 110.482 529.917 110.102 529.359C109.727 528.802 109.539 528.156 109.539 527.422H111.891C111.891 528.677 112.641 529.305 114.141 529.305C114.698 529.305 115.133 529.193 115.445 528.969C115.758 528.74 115.914 528.422 115.914 528.016ZM124.609 531C124.505 530.797 124.43 530.544 124.383 530.242C123.836 530.852 123.125 531.156 122.25 531.156C121.422 531.156 120.734 530.917 120.188 530.438C119.646 529.958 119.375 529.354 119.375 528.625C119.375 527.729 119.706 527.042 120.367 526.562C121.034 526.083 121.995 525.841 123.25 525.836H124.289V525.352C124.289 524.961 124.188 524.648 123.984 524.414C123.786 524.18 123.471 524.062 123.039 524.062C122.659 524.062 122.359 524.154 122.141 524.336C121.927 524.518 121.82 524.768 121.82 525.086H119.562C119.562 524.596 119.714 524.143 120.016 523.727C120.318 523.31 120.745 522.984 121.297 522.75C121.849 522.51 122.469 522.391 123.156 522.391C124.198 522.391 125.023 522.654 125.633 523.18C126.247 523.701 126.555 524.435 126.555 525.383V529.047C126.56 529.849 126.672 530.456 126.891 530.867V531H124.609ZM122.742 529.43C123.076 529.43 123.383 529.357 123.664 529.211C123.945 529.06 124.154 528.859 124.289 528.609V527.156H123.445C122.315 527.156 121.714 527.547 121.641 528.328L121.633 528.461C121.633 528.742 121.732 528.974 121.93 529.156C122.128 529.339 122.398 529.43 122.742 529.43ZM130.727 531H128.469V522.547H130.727V531ZM130.062 519.117H132.523L130.359 521.539H128.523L130.062 519.117ZM132.328 526.711C132.328 525.393 132.622 524.344 133.211 523.562C133.805 522.781 134.615 522.391 135.641 522.391C136.464 522.391 137.143 522.698 137.68 523.312V519H139.945V531H137.906L137.797 530.102C137.234 530.805 136.51 531.156 135.625 531.156C134.63 531.156 133.831 530.766 133.227 529.984C132.628 529.198 132.328 528.107 132.328 526.711ZM134.586 526.875C134.586 527.667 134.724 528.273 135 528.695C135.276 529.117 135.677 529.328 136.203 529.328C136.901 529.328 137.393 529.034 137.68 528.445V525.109C137.398 524.521 136.911 524.227 136.219 524.227C135.13 524.227 134.586 525.109 134.586 526.875ZM146.594 531C146.49 530.797 146.414 530.544 146.367 530.242C145.82 530.852 145.109 531.156 144.234 531.156C143.406 531.156 142.719 530.917 142.172 530.438C141.63 529.958 141.359 529.354 141.359 528.625C141.359 527.729 141.69 527.042 142.352 526.562C143.018 526.083 143.979 525.841 145.234 525.836H146.273V525.352C146.273 524.961 146.172 524.648 145.969 524.414C145.771 524.18 145.456 524.062 145.023 524.062C144.643 524.062 144.344 524.154 144.125 524.336C143.911 524.518 143.805 524.768 143.805 525.086H141.547C141.547 524.596 141.698 524.143 142 523.727C142.302 523.31 142.729 522.984 143.281 522.75C143.833 522.51 144.453 522.391 145.141 522.391C146.182 522.391 147.008 522.654 147.617 523.18C148.232 523.701 148.539 524.435 148.539 525.383V529.047C148.544 529.849 148.656 530.456 148.875 530.867V531H146.594ZM144.727 529.43C145.06 529.43 145.367 529.357 145.648 529.211C145.93 529.06 146.138 528.859 146.273 528.609V527.156H145.43C144.299 527.156 143.698 527.547 143.625 528.328L143.617 528.461C143.617 528.742 143.716 528.974 143.914 529.156C144.112 529.339 144.383 529.43 144.727 529.43ZM154.852 528.664C154.852 528.388 154.714 528.172 154.438 528.016C154.167 527.854 153.729 527.711 153.125 527.586C151.115 527.164 150.109 526.31 150.109 525.023C150.109 524.273 150.419 523.648 151.039 523.148C151.664 522.643 152.479 522.391 153.484 522.391C154.557 522.391 155.414 522.643 156.055 523.148C156.701 523.654 157.023 524.31 157.023 525.117H154.766C154.766 524.794 154.661 524.529 154.453 524.32C154.245 524.107 153.919 524 153.477 524C153.096 524 152.802 524.086 152.594 524.258C152.385 524.43 152.281 524.648 152.281 524.914C152.281 525.164 152.398 525.367 152.633 525.523C152.872 525.674 153.273 525.807 153.836 525.922C154.398 526.031 154.872 526.156 155.258 526.297C156.451 526.734 157.047 527.492 157.047 528.57C157.047 529.341 156.716 529.966 156.055 530.445C155.393 530.919 154.539 531.156 153.492 531.156C152.784 531.156 152.154 531.031 151.602 530.781C151.055 530.526 150.625 530.18 150.312 529.742C150 529.299 149.844 528.823 149.844 528.312H151.984C152.005 528.714 152.154 529.021 152.43 529.234C152.706 529.448 153.076 529.555 153.539 529.555C153.971 529.555 154.297 529.474 154.516 529.312C154.74 529.146 154.852 528.93 154.852 528.664Z" fill="white"/>
<path d="M120.83 617.088H110.934V612.992H120.83V617.088ZM134.717 616.631H130.516V626H125.242V600.406H134.752C137.775 600.406 140.107 601.08 141.748 602.428C143.389 603.775 144.209 605.68 144.209 608.141C144.209 609.887 143.828 611.346 143.066 612.518C142.316 613.678 141.174 614.604 139.639 615.295L145.176 625.754V626H139.516L134.717 616.631ZM130.516 612.359H134.77C136.094 612.359 137.119 612.025 137.846 611.357C138.572 610.678 138.936 609.746 138.936 608.562C138.936 607.355 138.59 606.406 137.898 605.715C137.219 605.023 136.17 604.678 134.752 604.678H130.516V612.359ZM159.836 619.268C159.836 618.307 159.566 617.545 159.027 616.982C158.5 616.408 157.598 615.881 156.32 615.4C155.043 614.92 153.941 614.445 153.016 613.977C152.09 613.496 151.293 612.951 150.625 612.342C149.969 611.721 149.453 610.994 149.078 610.162C148.715 609.33 148.533 608.34 148.533 607.191C148.533 605.211 149.166 603.588 150.432 602.322C151.697 601.057 153.379 600.318 155.477 600.107V596.346H158.289V600.16C160.363 600.453 161.986 601.32 163.158 602.762C164.33 604.191 164.916 606.049 164.916 608.334H159.836C159.836 606.928 159.543 605.879 158.957 605.188C158.383 604.484 157.609 604.133 156.637 604.133C155.676 604.133 154.932 604.408 154.404 604.959C153.877 605.498 153.613 606.248 153.613 607.209C153.613 608.1 153.871 608.814 154.387 609.354C154.902 609.893 155.857 610.443 157.252 611.006C158.658 611.568 159.812 612.102 160.715 612.605C161.617 613.098 162.379 613.66 163 614.293C163.621 614.914 164.096 615.629 164.424 616.438C164.752 617.234 164.916 618.166 164.916 619.232C164.916 621.225 164.295 622.842 163.053 624.084C161.811 625.326 160.1 626.059 157.92 626.281V629.779H155.125V626.299C152.723 626.041 150.859 625.191 149.535 623.75C148.223 622.297 147.566 620.369 147.566 617.967H152.646C152.646 619.361 152.975 620.434 153.631 621.184C154.299 621.922 155.254 622.291 156.496 622.291C157.527 622.291 158.342 622.021 158.939 621.482C159.537 620.932 159.836 620.193 159.836 619.268ZM194.869 626H177.326V622.52L185.605 613.695C186.742 612.453 187.58 611.369 188.119 610.443C188.67 609.518 188.945 608.639 188.945 607.807C188.945 606.67 188.658 605.779 188.084 605.135C187.51 604.479 186.689 604.15 185.623 604.15C184.475 604.15 183.566 604.549 182.898 605.346C182.242 606.131 181.914 607.168 181.914 608.457H176.816C176.816 606.898 177.186 605.475 177.924 604.186C178.674 602.896 179.729 601.889 181.088 601.162C182.447 600.424 183.988 600.055 185.711 600.055C188.348 600.055 190.393 600.688 191.846 601.953C193.311 603.219 194.043 605.006 194.043 607.314C194.043 608.58 193.715 609.869 193.059 611.182C192.402 612.494 191.277 614.023 189.684 615.77L183.865 621.904H194.869V626ZM210.338 626H205.258V606.418L199.193 608.299V604.168L209.793 600.371H210.338V626ZM230.553 615.77C229.229 617.07 227.682 617.721 225.912 617.721C223.65 617.721 221.84 616.947 220.48 615.4C219.121 613.842 218.441 611.744 218.441 609.107C218.441 607.432 218.805 605.896 219.531 604.502C220.27 603.096 221.295 602.006 222.607 601.232C223.92 600.447 225.396 600.055 227.037 600.055C228.725 600.055 230.225 600.477 231.537 601.32C232.85 602.164 233.869 603.377 234.596 604.959C235.322 606.541 235.691 608.352 235.703 610.391V612.271C235.703 616.537 234.643 619.889 232.521 622.326C230.4 624.764 227.395 626.064 223.504 626.229L222.256 626.246V622.01L223.381 621.992C227.799 621.793 230.189 619.719 230.553 615.77ZM227.16 613.836C227.98 613.836 228.684 613.625 229.27 613.203C229.867 612.781 230.318 612.271 230.623 611.674V609.582C230.623 607.859 230.295 606.523 229.639 605.574C228.982 604.625 228.104 604.15 227.002 604.15C225.982 604.15 225.145 604.619 224.488 605.557C223.832 606.482 223.504 607.648 223.504 609.055C223.504 610.449 223.82 611.598 224.453 612.5C225.098 613.391 226 613.836 227.16 613.836ZM240.871 632.416L238.217 631.027L238.85 629.885C239.635 628.455 240.039 627.031 240.062 625.613V621.676H244.352L244.334 625.191C244.322 626.492 243.994 627.805 243.35 629.129C242.705 630.453 241.879 631.549 240.871 632.416ZM260.014 615.77C258.689 617.07 257.143 617.721 255.373 617.721C253.111 617.721 251.301 616.947 249.941 615.4C248.582 613.842 247.902 611.744 247.902 609.107C247.902 607.432 248.266 605.896 248.992 604.502C249.73 603.096 250.756 602.006 252.068 601.232C253.381 600.447 254.857 600.055 256.498 600.055C258.186 600.055 259.686 600.477 260.998 601.32C262.311 602.164 263.33 603.377 264.057 604.959C264.783 606.541 265.152 608.352 265.164 610.391V612.271C265.164 616.537 264.104 619.889 261.982 622.326C259.861 624.764 256.855 626.064 252.965 626.229L251.717 626.246V622.01L252.842 621.992C257.26 621.793 259.65 619.719 260.014 615.77ZM256.621 613.836C257.441 613.836 258.145 613.625 258.73 613.203C259.328 612.781 259.779 612.271 260.084 611.674V609.582C260.084 607.859 259.756 606.523 259.1 605.574C258.443 604.625 257.564 604.15 256.463 604.15C255.443 604.15 254.605 604.619 253.949 605.557C253.293 606.482 252.965 607.648 252.965 609.055C252.965 610.449 253.281 611.598 253.914 612.5C254.559 613.391 255.461 613.836 256.621 613.836ZM286.029 615.418C286.029 618.957 285.297 621.664 283.832 623.539C282.367 625.414 280.223 626.352 277.398 626.352C274.609 626.352 272.477 625.432 271 623.592C269.523 621.752 268.768 619.115 268.732 615.682V610.971C268.732 607.396 269.471 604.684 270.947 602.832C272.436 600.98 274.574 600.055 277.363 600.055C280.152 600.055 282.285 600.975 283.762 602.814C285.238 604.643 285.994 607.273 286.029 610.707V615.418ZM280.949 610.25C280.949 608.129 280.656 606.588 280.07 605.627C279.496 604.654 278.594 604.168 277.363 604.168C276.168 604.168 275.283 604.631 274.709 605.557C274.146 606.471 273.848 607.906 273.812 609.863V616.086C273.812 618.172 274.094 619.725 274.656 620.744C275.23 621.752 276.145 622.256 277.398 622.256C278.641 622.256 279.537 621.77 280.088 620.797C280.639 619.824 280.926 618.336 280.949 616.332V610.25Z" fill="white"/>
<path d="M392.333 540L390.688 538.355L384.167 544.865L384.167 530.667L381.833 530.667L381.833 544.865L375.323 538.343L373.667 540L383 549.333L392.333 540Z" fill="#E83F5B"/>
<rect x="73" y="688" width="370" height="185" rx="4" fill="#242529"/>
<path d="M118.578 723.523H115.094V733H112.75V723.523H109.312V721.625H118.578V723.523ZM117.797 728.695C117.797 727.857 117.958 727.109 118.281 726.453C118.604 725.797 119.068 725.289 119.672 724.93C120.281 724.57 120.987 724.391 121.789 724.391C122.93 724.391 123.859 724.74 124.578 725.438C125.302 726.135 125.706 727.083 125.789 728.281L125.805 728.859C125.805 730.156 125.443 731.198 124.719 731.984C123.995 732.766 123.023 733.156 121.805 733.156C120.586 733.156 119.612 732.766 118.883 731.984C118.159 731.203 117.797 730.141 117.797 728.797V728.695ZM120.055 728.859C120.055 729.661 120.206 730.276 120.508 730.703C120.81 731.125 121.242 731.336 121.805 731.336C122.352 731.336 122.779 731.128 123.086 730.711C123.393 730.289 123.547 729.617 123.547 728.695C123.547 727.909 123.393 727.299 123.086 726.867C122.779 726.435 122.346 726.219 121.789 726.219C121.237 726.219 120.81 726.435 120.508 726.867C120.206 727.294 120.055 727.958 120.055 728.859ZM129.898 722.469V724.547H131.344V726.203H129.898V730.422C129.898 730.734 129.958 730.958 130.078 731.094C130.198 731.229 130.427 731.297 130.766 731.297C131.016 731.297 131.237 731.279 131.43 731.242V732.953C130.987 733.089 130.531 733.156 130.062 733.156C128.479 733.156 127.672 732.357 127.641 730.758V726.203H126.406V724.547H127.641V722.469H129.898ZM137.5 733C137.396 732.797 137.32 732.544 137.273 732.242C136.727 732.852 136.016 733.156 135.141 733.156C134.312 733.156 133.625 732.917 133.078 732.438C132.536 731.958 132.266 731.354 132.266 730.625C132.266 729.729 132.596 729.042 133.258 728.562C133.924 728.083 134.885 727.841 136.141 727.836H137.18V727.352C137.18 726.961 137.078 726.648 136.875 726.414C136.677 726.18 136.362 726.062 135.93 726.062C135.549 726.062 135.25 726.154 135.031 726.336C134.818 726.518 134.711 726.768 134.711 727.086H132.453C132.453 726.596 132.604 726.143 132.906 725.727C133.208 725.31 133.635 724.984 134.188 724.75C134.74 724.51 135.359 724.391 136.047 724.391C137.089 724.391 137.914 724.654 138.523 725.18C139.138 725.701 139.445 726.435 139.445 727.383V731.047C139.451 731.849 139.562 732.456 139.781 732.867V733H137.5ZM135.633 731.43C135.966 731.43 136.273 731.357 136.555 731.211C136.836 731.06 137.044 730.859 137.18 730.609V729.156H136.336C135.206 729.156 134.604 729.547 134.531 730.328L134.523 730.461C134.523 730.742 134.622 730.974 134.82 731.156C135.018 731.339 135.289 731.43 135.633 731.43ZM143.562 733H141.297V721H143.562V733Z" fill="white"/>
<path d="M120.76 818.631H116.559V828H111.285V802.406H120.795C123.818 802.406 126.15 803.08 127.791 804.428C129.432 805.775 130.252 807.68 130.252 810.141C130.252 811.887 129.871 813.346 129.109 814.518C128.359 815.678 127.217 816.604 125.682 817.295L131.219 827.754V828H125.559L120.76 818.631ZM116.559 814.359H120.812C122.137 814.359 123.162 814.025 123.889 813.357C124.615 812.678 124.979 811.746 124.979 810.562C124.979 809.355 124.633 808.406 123.941 807.715C123.262 807.023 122.213 806.678 120.795 806.678H116.559V814.359ZM145.879 821.268C145.879 820.307 145.609 819.545 145.07 818.982C144.543 818.408 143.641 817.881 142.363 817.4C141.086 816.92 139.984 816.445 139.059 815.977C138.133 815.496 137.336 814.951 136.668 814.342C136.012 813.721 135.496 812.994 135.121 812.162C134.758 811.33 134.576 810.34 134.576 809.191C134.576 807.211 135.209 805.588 136.475 804.322C137.74 803.057 139.422 802.318 141.52 802.107V798.346H144.332V802.16C146.406 802.453 148.029 803.32 149.201 804.762C150.373 806.191 150.959 808.049 150.959 810.334H145.879C145.879 808.928 145.586 807.879 145 807.188C144.426 806.484 143.652 806.133 142.68 806.133C141.719 806.133 140.975 806.408 140.447 806.959C139.92 807.498 139.656 808.248 139.656 809.209C139.656 810.1 139.914 810.814 140.43 811.354C140.945 811.893 141.9 812.443 143.295 813.006C144.701 813.568 145.855 814.102 146.758 814.605C147.66 815.098 148.422 815.66 149.043 816.293C149.664 816.914 150.139 817.629 150.467 818.438C150.795 819.234 150.959 820.166 150.959 821.232C150.959 823.225 150.338 824.842 149.096 826.084C147.854 827.326 146.143 828.059 143.963 828.281V831.779H141.168V828.299C138.766 828.041 136.902 827.191 135.578 825.75C134.266 824.297 133.609 822.369 133.609 819.967H138.689C138.689 821.361 139.018 822.434 139.674 823.184C140.342 823.922 141.297 824.291 142.539 824.291C143.57 824.291 144.385 824.021 144.982 823.482C145.58 822.932 145.879 822.193 145.879 821.268ZM180.051 809.209C180.051 810.451 179.74 811.553 179.119 812.514C178.498 813.475 177.643 814.242 176.553 814.816C177.795 815.414 178.779 816.24 179.506 817.295C180.232 818.338 180.596 819.568 180.596 820.986C180.596 823.26 179.822 825.059 178.275 826.383C176.729 827.695 174.625 828.352 171.965 828.352C169.305 828.352 167.195 827.689 165.637 826.365C164.078 825.041 163.299 823.248 163.299 820.986C163.299 819.568 163.662 818.332 164.389 817.277C165.115 816.223 166.094 815.402 167.324 814.816C166.234 814.242 165.379 813.475 164.758 812.514C164.148 811.553 163.844 810.451 163.844 809.209C163.844 807.029 164.57 805.295 166.023 804.006C167.477 802.705 169.451 802.055 171.947 802.055C174.432 802.055 176.4 802.699 177.854 803.988C179.318 805.266 180.051 807.006 180.051 809.209ZM175.498 820.617C175.498 819.504 175.176 818.613 174.531 817.945C173.887 817.277 173.02 816.943 171.93 816.943C170.852 816.943 169.99 817.277 169.346 817.945C168.701 818.602 168.379 819.492 168.379 820.617C168.379 821.707 168.695 822.586 169.328 823.254C169.961 823.922 170.84 824.256 171.965 824.256C173.066 824.256 173.928 823.934 174.549 823.289C175.182 822.645 175.498 821.754 175.498 820.617ZM174.971 809.455C174.971 808.459 174.707 807.662 174.18 807.064C173.652 806.455 172.908 806.15 171.947 806.15C170.998 806.15 170.26 806.443 169.732 807.029C169.205 807.615 168.941 808.424 168.941 809.455C168.941 810.475 169.205 811.295 169.732 811.916C170.26 812.537 171.004 812.848 171.965 812.848C172.926 812.848 173.664 812.537 174.18 811.916C174.707 811.295 174.971 810.475 174.971 809.455ZM189.209 812.953H191.916C193.205 812.953 194.16 812.631 194.781 811.986C195.402 811.342 195.713 810.486 195.713 809.42C195.713 808.389 195.402 807.586 194.781 807.012C194.172 806.438 193.328 806.15 192.25 806.15C191.277 806.15 190.463 806.42 189.807 806.959C189.15 807.486 188.822 808.178 188.822 809.033H183.742C183.742 807.697 184.1 806.502 184.814 805.447C185.541 804.381 186.549 803.549 187.838 802.951C189.139 802.354 190.568 802.055 192.127 802.055C194.834 802.055 196.955 802.705 198.49 804.006C200.025 805.295 200.793 807.076 200.793 809.35C200.793 810.521 200.436 811.6 199.721 812.584C199.006 813.568 198.068 814.324 196.908 814.852C198.35 815.367 199.422 816.141 200.125 817.172C200.84 818.203 201.197 819.422 201.197 820.828C201.197 823.102 200.365 824.924 198.701 826.295C197.049 827.666 194.857 828.352 192.127 828.352C189.572 828.352 187.48 827.678 185.852 826.33C184.234 824.982 183.426 823.201 183.426 820.986H188.506C188.506 821.947 188.863 822.732 189.578 823.342C190.305 823.951 191.195 824.256 192.25 824.256C193.457 824.256 194.4 823.939 195.08 823.307C195.771 822.662 196.117 821.812 196.117 820.758C196.117 818.203 194.711 816.926 191.898 816.926H189.209V812.953ZM209.881 812.953H212.588C213.877 812.953 214.832 812.631 215.453 811.986C216.074 811.342 216.385 810.486 216.385 809.42C216.385 808.389 216.074 807.586 215.453 807.012C214.844 806.438 214 806.15 212.922 806.15C211.949 806.15 211.135 806.42 210.479 806.959C209.822 807.486 209.494 808.178 209.494 809.033H204.414C204.414 807.697 204.771 806.502 205.486 805.447C206.213 804.381 207.221 803.549 208.51 802.951C209.811 802.354 211.24 802.055 212.799 802.055C215.506 802.055 217.627 802.705 219.162 804.006C220.697 805.295 221.465 807.076 221.465 809.35C221.465 810.521 221.107 811.6 220.393 812.584C219.678 813.568 218.74 814.324 217.58 814.852C219.021 815.367 220.094 816.141 220.797 817.172C221.512 818.203 221.869 819.422 221.869 820.828C221.869 823.102 221.037 824.924 219.373 826.295C217.721 827.666 215.529 828.352 212.799 828.352C210.244 828.352 208.152 827.678 206.523 826.33C204.906 824.982 204.098 823.201 204.098 820.986H209.178C209.178 821.947 209.535 822.732 210.25 823.342C210.977 823.951 211.867 824.256 212.922 824.256C214.129 824.256 215.072 823.939 215.752 823.307C216.443 822.662 216.789 821.812 216.789 820.758C216.789 818.203 215.383 816.926 212.57 816.926H209.881V812.953ZM226.914 834.416L224.26 833.027L224.893 831.885C225.678 830.455 226.082 829.031 226.105 827.613V823.676H230.395L230.377 827.191C230.365 828.492 230.037 829.805 229.393 831.129C228.748 832.453 227.922 833.549 226.914 834.416ZM234.93 815.414L236.406 802.406H250.75V806.643H240.572L239.939 812.145C241.146 811.5 242.43 811.178 243.789 811.178C246.227 811.178 248.137 811.934 249.52 813.445C250.902 814.957 251.594 817.072 251.594 819.791C251.594 821.443 251.242 822.926 250.539 824.238C249.848 825.539 248.852 826.553 247.551 827.279C246.25 827.994 244.715 828.352 242.945 828.352C241.398 828.352 239.963 828.041 238.639 827.42C237.314 826.787 236.266 825.902 235.492 824.766C234.73 823.629 234.326 822.334 234.279 820.881H239.307C239.412 821.947 239.781 822.779 240.414 823.377C241.059 823.963 241.896 824.256 242.928 824.256C244.076 824.256 244.961 823.846 245.582 823.025C246.203 822.193 246.514 821.021 246.514 819.51C246.514 818.057 246.156 816.943 245.441 816.17C244.727 815.396 243.713 815.01 242.4 815.01C241.193 815.01 240.215 815.326 239.465 815.959L238.973 816.416L234.93 815.414ZM255.602 815.414L257.078 802.406H271.422V806.643H261.244L260.611 812.145C261.818 811.5 263.102 811.178 264.461 811.178C266.898 811.178 268.809 811.934 270.191 813.445C271.574 814.957 272.266 817.072 272.266 819.791C272.266 821.443 271.914 822.926 271.211 824.238C270.52 825.539 269.523 826.553 268.223 827.279C266.922 827.994 265.387 828.352 263.617 828.352C262.07 828.352 260.635 828.041 259.311 827.42C257.986 826.787 256.938 825.902 256.164 824.766C255.402 823.629 254.998 822.334 254.951 820.881H259.979C260.084 821.947 260.453 822.779 261.086 823.377C261.73 823.963 262.568 824.256 263.6 824.256C264.748 824.256 265.633 823.846 266.254 823.025C266.875 822.193 267.186 821.021 267.186 819.51C267.186 818.057 266.828 816.943 266.113 816.17C265.398 815.396 264.385 815.01 263.072 815.01C261.865 815.01 260.887 815.326 260.137 815.959L259.645 816.416L255.602 815.414Z" fill="white"/>
<path d="M377.167 739.667H373.667V747.833H377.167V739.667Z" fill="#82868E"/>
<path d="M384.75 739.667H381.25V747.833H384.75V739.667Z" fill="#82868E"/>
<path d="M394.667 750.167H371.333V753.667H394.667V750.167Z" fill="#82868E"/>
<path d="M392.333 739.667H388.833V747.833H392.333V739.667Z" fill="#82868E"/>
<path d="M383 729.167L371.333 735V737.333H394.667V735L383 729.167Z" fill="#82868E"/>
<g filter="url(#filter2_d)">
<rect x="52" y="147" width="412" height="64" fill="#18181A"/>
</g>
<path d="M434.037 172.963L431.125 171.646L434.037 170.329L435.354 167.417L436.671 170.329L439.583 171.646L436.671 172.963L435.354 175.875L434.037 172.963ZM438.713 180.37L437.771 178.292L436.828 180.37L434.75 181.313L436.828 182.255L437.771 184.333L438.713 182.255L440.792 181.313L438.713 180.37ZM432.623 182.364L434.967 184.14L431.947 189.372L429.24 188.236C428.998 188.393 428.732 188.55 428.467 188.683L428.104 191.583H422.062L421.7 188.671C421.434 188.538 421.18 188.393 420.927 188.224L418.22 189.36L415.199 184.128L417.543 182.352C417.531 182.219 417.531 182.062 417.531 181.917C417.531 181.772 417.531 181.615 417.543 181.47L415.199 179.693L418.22 174.461L420.927 175.597C421.168 175.44 421.434 175.283 421.7 175.15L422.062 172.25H428.104L428.467 175.162C428.732 175.295 428.986 175.44 429.24 175.609L431.947 174.473L434.967 179.705L432.623 181.482C432.635 181.627 432.635 181.772 432.635 181.929C432.635 182.086 432.635 182.219 432.623 182.364ZM428.708 181.917C428.708 179.911 427.089 178.292 425.083 178.292C423.077 178.292 421.458 179.911 421.458 181.917C421.458 183.923 423.077 185.542 425.083 185.542C427.089 185.542 428.708 183.923 428.708 181.917Z" fill="#82868E"/>
<rect x="52" y="120" width="412" height="27" fill="#121214"/>
<path d="M422.57 140H414.773V138.453L418.453 134.531C418.958 133.979 419.331 133.497 419.57 133.086C419.815 132.674 419.938 132.284 419.938 131.914C419.938 131.409 419.81 131.013 419.555 130.727C419.299 130.435 418.935 130.289 418.461 130.289C417.951 130.289 417.547 130.466 417.25 130.82C416.958 131.169 416.812 131.63 416.812 132.203H414.547C414.547 131.51 414.711 130.878 415.039 130.305C415.372 129.732 415.841 129.284 416.445 128.961C417.049 128.633 417.734 128.469 418.5 128.469C419.672 128.469 420.581 128.75 421.227 129.312C421.878 129.875 422.203 130.669 422.203 131.695C422.203 132.258 422.057 132.831 421.766 133.414C421.474 133.997 420.974 134.677 420.266 135.453L417.68 138.18H422.57V140ZM431.617 135.297C431.617 136.87 431.292 138.073 430.641 138.906C429.99 139.74 429.036 140.156 427.781 140.156C426.542 140.156 425.594 139.747 424.938 138.93C424.281 138.112 423.945 136.94 423.93 135.414V133.32C423.93 131.732 424.258 130.526 424.914 129.703C425.576 128.88 426.526 128.469 427.766 128.469C429.005 128.469 429.953 128.878 430.609 129.695C431.266 130.508 431.602 131.677 431.617 133.203V135.297ZM429.359 133C429.359 132.057 429.229 131.372 428.969 130.945C428.714 130.513 428.312 130.297 427.766 130.297C427.234 130.297 426.841 130.503 426.586 130.914C426.336 131.32 426.203 131.958 426.188 132.828V135.594C426.188 136.521 426.312 137.211 426.562 137.664C426.818 138.112 427.224 138.336 427.781 138.336C428.333 138.336 428.732 138.12 428.977 137.688C429.221 137.255 429.349 136.594 429.359 135.703V133ZM433.352 138.891C433.352 138.531 433.471 138.24 433.711 138.016C433.956 137.792 434.26 137.68 434.625 137.68C434.995 137.68 435.299 137.792 435.539 138.016C435.784 138.24 435.906 138.531 435.906 138.891C435.906 139.245 435.786 139.534 435.547 139.758C435.307 139.977 435 140.086 434.625 140.086C434.255 140.086 433.951 139.977 433.711 139.758C433.471 139.534 433.352 139.245 433.352 138.891ZM433.352 132.492C433.352 132.133 433.471 131.841 433.711 131.617C433.956 131.393 434.26 131.281 434.625 131.281C434.995 131.281 435.299 131.393 435.539 131.617C435.784 131.841 435.906 132.133 435.906 132.492C435.906 132.846 435.786 133.135 435.547 133.359C435.307 133.578 435 133.688 434.625 133.688C434.255 133.688 433.951 133.578 433.711 133.359C433.471 133.135 433.352 132.846 433.352 132.492ZM439.961 133.312H441.164C441.737 133.312 442.161 133.169 442.438 132.883C442.714 132.596 442.852 132.216 442.852 131.742C442.852 131.284 442.714 130.927 442.438 130.672C442.167 130.417 441.792 130.289 441.312 130.289C440.88 130.289 440.518 130.409 440.227 130.648C439.935 130.883 439.789 131.19 439.789 131.57H437.531C437.531 130.977 437.69 130.445 438.008 129.977C438.331 129.503 438.779 129.133 439.352 128.867C439.93 128.602 440.565 128.469 441.258 128.469C442.461 128.469 443.404 128.758 444.086 129.336C444.768 129.909 445.109 130.701 445.109 131.711C445.109 132.232 444.951 132.711 444.633 133.148C444.315 133.586 443.898 133.922 443.383 134.156C444.023 134.385 444.5 134.729 444.812 135.188C445.13 135.646 445.289 136.188 445.289 136.812C445.289 137.823 444.919 138.633 444.18 139.242C443.445 139.852 442.471 140.156 441.258 140.156C440.122 140.156 439.193 139.857 438.469 139.258C437.75 138.659 437.391 137.867 437.391 136.883H439.648C439.648 137.31 439.807 137.659 440.125 137.93C440.448 138.201 440.844 138.336 441.312 138.336C441.849 138.336 442.268 138.195 442.57 137.914C442.878 137.628 443.031 137.25 443.031 136.781C443.031 135.646 442.406 135.078 441.156 135.078H439.961V133.312ZM449.148 133.312H450.352C450.924 133.312 451.349 133.169 451.625 132.883C451.901 132.596 452.039 132.216 452.039 131.742C452.039 131.284 451.901 130.927 451.625 130.672C451.354 130.417 450.979 130.289 450.5 130.289C450.068 130.289 449.706 130.409 449.414 130.648C449.122 130.883 448.977 131.19 448.977 131.57H446.719C446.719 130.977 446.878 130.445 447.195 129.977C447.518 129.503 447.966 129.133 448.539 128.867C449.117 128.602 449.753 128.469 450.445 128.469C451.648 128.469 452.591 128.758 453.273 129.336C453.956 129.909 454.297 130.701 454.297 131.711C454.297 132.232 454.138 132.711 453.82 133.148C453.503 133.586 453.086 133.922 452.57 134.156C453.211 134.385 453.688 134.729 454 135.188C454.318 135.646 454.477 136.188 454.477 136.812C454.477 137.823 454.107 138.633 453.367 139.242C452.633 139.852 451.659 140.156 450.445 140.156C449.31 140.156 448.38 139.857 447.656 139.258C446.938 138.659 446.578 137.867 446.578 136.883H448.836C448.836 137.31 448.995 137.659 449.312 137.93C449.635 138.201 450.031 138.336 450.5 138.336C451.036 138.336 451.456 138.195 451.758 137.914C452.065 137.628 452.219 137.25 452.219 136.781C452.219 135.646 451.594 135.078 450.344 135.078H449.148V133.312Z" fill="white"/>
<path d="M367.258 140H365V131.297L362.305 132.133V130.297L367.016 128.609H367.258V140ZM378.617 135.297C378.617 136.87 378.292 138.073 377.641 138.906C376.99 139.74 376.036 140.156 374.781 140.156C373.542 140.156 372.594 139.747 371.938 138.93C371.281 138.112 370.945 136.94 370.93 135.414V133.32C370.93 131.732 371.258 130.526 371.914 129.703C372.576 128.88 373.526 128.469 374.766 128.469C376.005 128.469 376.953 128.878 377.609 129.695C378.266 130.508 378.602 131.677 378.617 133.203V135.297ZM376.359 133C376.359 132.057 376.229 131.372 375.969 130.945C375.714 130.513 375.312 130.297 374.766 130.297C374.234 130.297 373.841 130.503 373.586 130.914C373.336 131.32 373.203 131.958 373.188 132.828V135.594C373.188 136.521 373.312 137.211 373.562 137.664C373.818 138.112 374.224 138.336 374.781 138.336C375.333 138.336 375.732 138.12 375.977 137.688C376.221 137.255 376.349 136.594 376.359 135.703V133ZM380.117 130.812C380.117 130.115 380.344 129.549 380.797 129.117C381.25 128.68 381.844 128.461 382.578 128.461C383.323 128.461 383.922 128.677 384.375 129.109C384.828 129.536 385.055 130.117 385.055 130.852V131.414C385.055 132.117 384.828 132.682 384.375 133.109C383.922 133.536 383.328 133.75 382.594 133.75C381.854 133.75 381.255 133.536 380.797 133.109C380.344 132.677 380.117 132.096 380.117 131.367V130.812ZM381.617 131.414C381.617 131.727 381.706 131.979 381.883 132.172C382.065 132.359 382.302 132.453 382.594 132.453C382.885 132.453 383.117 132.357 383.289 132.164C383.461 131.971 383.547 131.714 383.547 131.391V130.812C383.547 130.5 383.461 130.247 383.289 130.055C383.117 129.862 382.88 129.766 382.578 129.766C382.292 129.766 382.06 129.862 381.883 130.055C381.706 130.242 381.617 130.505 381.617 130.844V131.414ZM385.555 137.211C385.555 136.508 385.784 135.943 386.242 135.516C386.701 135.083 387.294 134.867 388.023 134.867C388.763 134.867 389.359 135.081 389.812 135.508C390.271 135.93 390.5 136.513 390.5 137.258V137.82C390.5 138.518 390.276 139.083 389.828 139.516C389.38 139.943 388.784 140.156 388.039 140.156C387.289 140.156 386.688 139.94 386.234 139.508C385.781 139.076 385.555 138.503 385.555 137.789V137.211ZM387.055 137.82C387.055 138.107 387.148 138.352 387.336 138.555C387.523 138.758 387.758 138.859 388.039 138.859C388.674 138.859 388.992 138.508 388.992 137.805V137.211C388.992 136.898 388.904 136.648 388.727 136.461C388.549 136.268 388.315 136.172 388.023 136.172C387.732 136.172 387.497 136.268 387.32 136.461C387.143 136.648 387.055 136.906 387.055 137.234V137.82ZM383.039 139.148L381.938 138.555L387.492 129.664L388.594 130.258L383.039 139.148Z" fill="white"/>
<path d="M333.273 142H330.93V137.125H326.359V142H324.016V130.625H326.359V135.234H330.93V130.625H333.273V142Z" fill="white"/>
<rect x="395" y="127" width="11" height="15" fill="#49494B"/>
<rect x="395" y="140" width="11" height="2" fill="#BE1E1E"/>
<rect x="398" y="125" width="5" height="2" fill="#49494B"/>
<path d="M350 126.5V140.5H335.5L350 126.5Z" fill="white"/>
<path d="M70.5234 189V171.938H75.7734C77.2734 171.938 78.6133 172.277 79.793 172.957C80.9805 173.629 81.9062 174.59 82.5703 175.84C83.2344 177.082 83.5664 178.496 83.5664 180.082V180.867C83.5664 182.453 83.2383 183.863 82.582 185.098C81.9336 186.332 81.0156 187.289 79.8281 187.969C78.6406 188.648 77.3008 188.992 75.8086 189H70.5234ZM74.0391 174.785V186.176H75.7383C77.1133 186.176 78.1641 185.727 78.8906 184.828C79.6172 183.93 79.9883 182.645 80.0039 180.973V180.07C80.0039 178.336 79.6445 177.023 78.9258 176.133C78.207 175.234 77.1562 174.785 75.7734 174.785H74.0391ZM91.7461 189.234C89.8867 189.234 88.3711 188.664 87.1992 187.523C86.0352 186.383 85.4531 184.863 85.4531 182.965V182.637C85.4531 181.363 85.6992 180.227 86.1914 179.227C86.6836 178.219 87.3789 177.445 88.2773 176.906C89.1836 176.359 90.2148 176.086 91.3711 176.086C93.1055 176.086 94.4688 176.633 95.4609 177.727C96.4609 178.82 96.9609 180.371 96.9609 182.379V183.762H88.8867C88.9961 184.59 89.3242 185.254 89.8711 185.754C90.4258 186.254 91.125 186.504 91.9688 186.504C93.2734 186.504 94.293 186.031 95.0273 185.086L96.6914 186.949C96.1836 187.668 95.4961 188.23 94.6289 188.637C93.7617 189.035 92.8008 189.234 91.7461 189.234ZM91.3594 178.828C90.6875 178.828 90.1406 179.055 89.7188 179.508C89.3047 179.961 89.0391 180.609 88.9219 181.453H93.6328V181.184C93.6172 180.434 93.4141 179.855 93.0234 179.449C92.6328 179.035 92.0781 178.828 91.3594 178.828ZM103.477 184.863L105.832 176.32H109.371L105.094 189H101.859L97.582 176.32H101.121L103.477 184.863ZM121.359 182.027H114.609V189H111.094V171.938H122.203V174.785H114.609V179.191H121.359V182.027ZM127.594 189H124.195V176.32H127.594V189ZM123.996 173.039C123.996 172.531 124.164 172.113 124.5 171.785C124.844 171.457 125.309 171.293 125.895 171.293C126.473 171.293 126.934 171.457 127.277 171.785C127.621 172.113 127.793 172.531 127.793 173.039C127.793 173.555 127.617 173.977 127.266 174.305C126.922 174.633 126.465 174.797 125.895 174.797C125.324 174.797 124.863 174.633 124.512 174.305C124.168 173.977 123.996 173.555 123.996 173.039ZM133.512 176.32L133.617 177.785C134.523 176.652 135.738 176.086 137.262 176.086C138.605 176.086 139.605 176.48 140.262 177.27C140.918 178.059 141.254 179.238 141.27 180.809V189H137.883V180.891C137.883 180.172 137.727 179.652 137.414 179.332C137.102 179.004 136.582 178.84 135.855 178.84C134.902 178.84 134.188 179.246 133.711 180.059V189H130.324V176.32H133.512ZM151.195 189C151.039 188.695 150.926 188.316 150.855 187.863C150.035 188.777 148.969 189.234 147.656 189.234C146.414 189.234 145.383 188.875 144.562 188.156C143.75 187.438 143.344 186.531 143.344 185.438C143.344 184.094 143.84 183.062 144.832 182.344C145.832 181.625 147.273 181.262 149.156 181.254H150.715V180.527C150.715 179.941 150.562 179.473 150.258 179.121C149.961 178.77 149.488 178.594 148.84 178.594C148.27 178.594 147.82 178.73 147.492 179.004C147.172 179.277 147.012 179.652 147.012 180.129H143.625C143.625 179.395 143.852 178.715 144.305 178.09C144.758 177.465 145.398 176.977 146.227 176.625C147.055 176.266 147.984 176.086 149.016 176.086C150.578 176.086 151.816 176.48 152.73 177.27C153.652 178.051 154.113 179.152 154.113 180.574V186.07C154.121 187.273 154.289 188.184 154.617 188.801V189H151.195ZM148.395 186.645C148.895 186.645 149.355 186.535 149.777 186.316C150.199 186.09 150.512 185.789 150.715 185.414V183.234H149.449C147.754 183.234 146.852 183.82 146.742 184.992L146.73 185.191C146.73 185.613 146.879 185.961 147.176 186.234C147.473 186.508 147.879 186.645 148.395 186.645ZM159.832 176.32L159.938 177.785C160.844 176.652 162.059 176.086 163.582 176.086C164.926 176.086 165.926 176.48 166.582 177.27C167.238 178.059 167.574 179.238 167.59 180.809V189H164.203V180.891C164.203 180.172 164.047 179.652 163.734 179.332C163.422 179.004 162.902 178.84 162.176 178.84C161.223 178.84 160.508 179.246 160.031 180.059V189H156.645V176.32H159.832ZM175.441 186.504C176.066 186.504 176.574 186.332 176.965 185.988C177.355 185.645 177.559 185.188 177.574 184.617H180.75C180.742 185.477 180.508 186.266 180.047 186.984C179.586 187.695 178.953 188.25 178.148 188.648C177.352 189.039 176.469 189.234 175.5 189.234C173.688 189.234 172.258 188.66 171.211 187.512C170.164 186.355 169.641 184.762 169.641 182.73V182.508C169.641 180.555 170.16 178.996 171.199 177.832C172.238 176.668 173.664 176.086 175.477 176.086C177.062 176.086 178.332 176.539 179.285 177.445C180.246 178.344 180.734 179.543 180.75 181.043H177.574C177.559 180.387 177.355 179.855 176.965 179.449C176.574 179.035 176.059 178.828 175.418 178.828C174.629 178.828 174.031 179.117 173.625 179.695C173.227 180.266 173.027 181.195 173.027 182.484V182.836C173.027 184.141 173.227 185.078 173.625 185.648C174.023 186.219 174.629 186.504 175.441 186.504ZM188.52 189.234C186.66 189.234 185.145 188.664 183.973 187.523C182.809 186.383 182.227 184.863 182.227 182.965V182.637C182.227 181.363 182.473 180.227 182.965 179.227C183.457 178.219 184.152 177.445 185.051 176.906C185.957 176.359 186.988 176.086 188.145 176.086C189.879 176.086 191.242 176.633 192.234 177.727C193.234 178.82 193.734 180.371 193.734 182.379V183.762H185.66C185.77 184.59 186.098 185.254 186.645 185.754C187.199 186.254 187.898 186.504 188.742 186.504C190.047 186.504 191.066 186.031 191.801 185.086L193.465 186.949C192.957 187.668 192.27 188.23 191.402 188.637C190.535 189.035 189.574 189.234 188.52 189.234ZM188.133 178.828C187.461 178.828 186.914 179.055 186.492 179.508C186.078 179.961 185.812 180.609 185.695 181.453H190.406V181.184C190.391 180.434 190.188 179.855 189.797 179.449C189.406 179.035 188.852 178.828 188.133 178.828Z" fill="white"/>
</g>
<rect x="51.5" y="119.5" width="413" height="733" stroke="#121212"/>
</g>
<defs>
<filter id="filter0_d" x="0" y="0" width="520" height="982" filterUnits="userSpaceOnUse" color-interpolation-filters="sRGB">
<feFlood flood-opacity="0" result="BackgroundImageFix"/>
<feColorMatrix in="SourceAlpha" type="matrix" values="0 0 0 0 0 0 0 0 0 0 0 0 0 0 0 0 0 0 127 0" result="hardAlpha"/>
<feOffset/>
<feGaussianBlur stdDeviation="16"/>
<feComposite in2="hardAlpha" operator="out"/>
<feColorMatrix type="matrix" values="0 0 0 0 0 0 0 0 0 0 0 0 0 0 0 0 0 0 0.25 0"/>
<feBlend mode="normal" in2="BackgroundImageFix" result="effect1_dropShadow"/>
<feBlend mode="normal" in="SourceGraphic" in2="effect1_dropShadow" result="shape"/>
</filter>
<filter id="filter1_i" x="51" y="119" width="414" height="734" filterUnits="userSpaceOnUse" color-interpolation-filters="sRGB">
<feFlood flood-opacity="0" result="BackgroundImageFix"/>
<feBlend mode="normal" in="SourceGraphic" in2="BackgroundImageFix" result="shape"/>
<feColorMatrix in="SourceAlpha" type="matrix" values="0 0 0 0 0 0 0 0 0 0 0 0 0 0 0 0 0 0 127 0" result="hardAlpha"/>
<feOffset/>
<feGaussianBlur stdDeviation="4"/>
<feComposite in2="hardAlpha" operator="arithmetic" k2="-1" k3="1"/>
<feColorMatrix type="matrix" values="0 0 0 0 0 0 0 0 0 0 0 0 0 0 0 0 0 0 0.1 0"/>
<feBlend mode="normal" in2="shape" result="effect1_innerShadow"/>
</filter>
<filter id="filter2_d" x="44" y="143" width="428" height="80" filterUnits="userSpaceOnUse" color-interpolation-filters="sRGB">
<feFlood flood-opacity="0" result="BackgroundImageFix"/>
<feColorMatrix in="SourceAlpha" type="matrix" values="0 0 0 0 0 0 0 0 0 0 0 0 0 0 0 0 0 0 127 0" result="hardAlpha"/>
<feOffset dy="4"/>
<feGaussianBlur stdDeviation="4"/>
<feComposite in2="hardAlpha" operator="out"/>
<feColorMatrix type="matrix" values="0 0 0 0 0 0 0 0 0 0 0 0 0 0 0 0 0 0 0.25 0"/>
<feBlend mode="normal" in2="BackgroundImageFix" result="effect1_dropShadow"/>
<feBlend mode="normal" in="SourceGraphic" in2="effect1_dropShadow" result="shape"/>
</filter>
<clipPath id="clip0">
<rect x="52" y="120" width="412" height="732" fill="white"/>
</clipPath>
</defs>
</svg>
