<svg width="192" height="192" viewBox="0 0 192 192" fill="none" xmlns="http://www.w3.org/2000/svg">
<path d="M176 0H16C7.16344 0 0 7.16344 0 16V176C0 184.837 7.16344 192 16 192H176C184.837 192 192 184.837 192 176V16C192 7.16344 184.837 0 176 0Z" fill="#3C4051"/>
<path d="M26 99.7589C26 96.8149 26.5772 94.2039 27.7315 91.9257C28.9207 89.6475 30.5299 87.8953 32.5586 86.6686C34.5873 85.4418 36.8434 84.8286 39.327 84.8286C41.2159 84.8286 43.0174 85.2491 44.7313 86.0903C46.4452 86.8965 47.8094 87.9829 48.8238 89.3497V75.5234H56.2744V114.426H48.8238V110.115C47.9143 111.552 46.6377 112.709 44.9936 113.585C43.3495 114.461 41.4433 114.899 39.2746 114.899C36.8261 114.899 34.5873 114.269 32.5586 113.007C30.5299 111.745 28.9207 109.975 27.7315 107.697C26.5772 105.384 26 102.738 26 99.7589ZM48.8763 99.864C48.8763 98.0766 48.5266 96.552 47.8269 95.2903C47.1273 93.9936 46.1828 93.0121 44.9936 92.3463C43.8044 91.6453 42.5276 91.2949 41.1634 91.2949C39.7992 91.2949 38.54 91.6279 37.3857 92.2937C36.2314 92.9595 35.2869 93.941 34.5524 95.2377C33.8527 96.4994 33.503 98.0064 33.503 99.7589C33.503 101.511 33.8527 103.053 34.5524 104.385C35.2869 105.682 36.2314 106.681 37.3857 107.382C38.5749 108.083 39.8341 108.433 41.1634 108.433C42.5276 108.433 43.8044 108.1 44.9936 107.434C46.1828 106.733 47.1273 105.752 47.8269 104.49C48.5266 103.194 48.8763 101.651 48.8763 99.864ZM90.4699 99.2331C90.4699 100.285 90.4001 101.231 90.26 102.072H69.0102C69.1852 104.175 69.9197 105.822 71.2139 107.014C72.5083 108.205 74.0997 108.801 75.9885 108.801C78.7169 108.801 80.6582 107.627 81.8125 105.279H89.7353C88.8958 108.083 87.2868 110.396 84.9082 112.218C82.5298 114.006 79.6089 114.899 76.1459 114.899C73.3478 114.899 70.8293 114.286 68.5905 113.059C66.3868 111.798 64.6553 110.028 63.3961 107.75C62.172 105.472 61.5597 102.843 61.5597 99.864C61.5597 96.8498 62.172 94.2039 63.3961 91.9257C64.6204 89.6475 66.3343 87.8953 68.538 86.6686C70.7417 85.4418 73.2777 84.8286 76.1459 84.8286C78.9094 84.8286 81.3755 85.4245 83.544 86.616C85.7477 87.8075 87.4443 89.5074 88.6335 91.7154C89.8578 93.8885 90.4699 96.3943 90.4699 99.2331ZM82.8619 97.1303C82.827 95.2377 82.1449 93.7307 80.8156 92.6091C79.4866 91.4526 77.8601 90.8743 75.9361 90.8743C74.1172 90.8743 72.5781 91.435 71.3188 92.5566C70.0947 93.643 69.3426 95.1675 69.0627 97.1303H82.8619ZM107.952 107.645L115.297 85.3017H123.115L112.359 114.426H103.439L92.7359 85.3017H100.606L107.952 107.645ZM167 103.859C167 105.682 166.528 107.399 165.583 109.011C164.674 110.589 163.31 111.903 161.491 112.954C159.707 113.971 157.591 114.566 155.142 114.742V119H151.784V114.689C148.286 114.374 145.47 113.322 143.337 111.535C141.203 109.712 140.101 107.259 140.031 104.175H147.901C148.111 106.698 149.405 108.223 151.784 108.749V98.7074C149.266 98.0766 147.237 97.4457 145.698 96.8149C144.159 96.184 142.829 95.1675 141.71 93.7657C140.591 92.3639 140.031 90.4537 140.031 88.0354C140.031 84.9863 141.115 82.4978 143.284 80.5703C145.488 78.6427 148.321 77.5387 151.784 77.2583V73H155.142V77.2583C158.5 77.5387 161.176 78.555 163.17 80.3074C165.199 82.0599 166.335 84.4782 166.58 87.5623H158.658C158.553 86.5458 158.185 85.6697 157.556 84.9337C156.961 84.1627 156.156 83.6194 155.142 83.304V93.24C157.766 93.9058 159.829 94.5543 161.333 95.1851C162.872 95.781 164.202 96.7799 165.321 98.1817C166.44 99.5486 167 101.441 167 103.859ZM147.692 87.6674C147.692 88.824 148.041 89.7703 148.741 90.5063C149.44 91.2073 150.455 91.7856 151.784 92.2411V83.1463C150.525 83.3216 149.528 83.7947 148.793 84.5657C148.059 85.3367 147.692 86.3707 147.692 87.6674ZM155.142 108.854C156.471 108.608 157.503 108.065 158.238 107.224C159.007 106.383 159.392 105.366 159.392 104.175C159.392 103.018 159.025 102.09 158.29 101.389C157.556 100.688 156.506 100.109 155.142 99.6537V108.854Z" fill="white"/>
<path d="M130.552 115C129.227 115 128.128 114.579 127.256 113.738C126.419 112.86 126 111.781 126 110.5C126 109.219 126.419 108.159 127.256 107.317C128.128 106.439 129.227 106 130.552 106C131.843 106 132.907 106.439 133.744 107.317C134.581 108.159 135 109.219 135 110.5C135 111.781 134.581 112.86 133.744 113.738C132.907 114.579 131.843 115 130.552 115Z" fill="#49AA26"/>
</svg>
